<mxfile host="app.diagrams.net" modified="2023-12-19T19:38:15.946Z" agent="Mozilla/5.0 (X11; Linux x86_64; rv:120.0) Gecko/20100101 Firefox/120.0" etag="Z4L5yYdhz6BdPCg5cBYb" version="22.1.11" type="device" pages="4">
  <diagram name="Setups" id="CMVu5LDo658IcdAwQW-w">
    <mxGraphModel dx="823" dy="1597" grid="1" gridSize="10" guides="1" tooltips="1" connect="1" arrows="1" fold="1" page="1" pageScale="1" pageWidth="850" pageHeight="1100" math="0" shadow="0">
      <root>
        <mxCell id="0" />
        <mxCell id="1" parent="0" />
        <mxCell id="7oZkYBqrWc3FSHrwHTik-1" value="&lt;div align=&quot;left&quot;&gt;&lt;font style=&quot;font-size: 24px;&quot;&gt;&lt;b&gt;&lt;u&gt;Character setup:&lt;/u&gt;&lt;/b&gt;&lt;/font&gt;&lt;/div&gt;&lt;div align=&quot;left&quot;&gt;&lt;br&gt;&lt;/div&gt;&lt;div align=&quot;left&quot;&gt;1) Create a folder for the new character in the Character directory and save inside of it  an inherited scene from the base character.tscn and rename it accordingly, i.e: player.tscn.&lt;/div&gt;&lt;div align=&quot;left&quot;&gt;&lt;br&gt;&lt;/div&gt;&lt;div align=&quot;left&quot;&gt;2) Rename the inherited scene root node as how the new character is going to be called, i.e: Player, Zombie, etc.&lt;br&gt;&lt;/div&gt;&lt;div align=&quot;left&quot;&gt;&lt;br&gt;&lt;/div&gt;&lt;div align=&quot;left&quot;&gt;3) Set the character&#39;s stats so It can move around, have health, receive damage, etc.&lt;/div&gt;&lt;div align=&quot;left&quot;&gt;&lt;br&gt;&lt;/div&gt;&lt;div align=&quot;left&quot;&gt;4) Assign the sprite texture, its animation frames, offset, etc.&lt;/div&gt;&lt;div align=&quot;left&quot;&gt;&lt;br&gt;&lt;/div&gt;&lt;div align=&quot;left&quot;&gt;5) Set the CharacterBody&#39;s CollisionShape.&lt;/div&gt;&lt;div align=&quot;left&quot;&gt;&lt;br&gt;&lt;/div&gt;&lt;div align=&quot;left&quot;&gt;6) Set the Hurtbox CollisionShape.&lt;/div&gt;&lt;div align=&quot;left&quot;&gt;&lt;br&gt;&lt;/div&gt;&lt;div align=&quot;left&quot;&gt;7) Set the SoftCollision CollisionShape.&lt;/div&gt;&lt;div align=&quot;left&quot;&gt;&lt;br&gt;&lt;/div&gt;&lt;div align=&quot;left&quot;&gt;8) Put at least one item in the ItemStack.&lt;/div&gt;&lt;div align=&quot;left&quot;&gt;&lt;br&gt;&lt;/div&gt;&lt;div align=&quot;left&quot;&gt;9) Add an AnimationPlayer child node.&lt;/div&gt;&lt;div align=&quot;left&quot;&gt;&lt;br&gt;&lt;/div&gt;&lt;div align=&quot;left&quot;&gt;10) Create the animations idle, die and move. Create animations for each item in the stack. Each animation must be named as action + &quot;_&quot; + character_anim. I.e: fists when the character is idle: idle_fists. For  primary action (attack) of all melee_1 weapons (axe, hammer, etc): primary_melee_1. Every animation must last 1 sec.&lt;/div&gt;&lt;div align=&quot;left&quot;&gt;Valid actions:&lt;/div&gt;&lt;div align=&quot;left&quot;&gt;&quot;idle&quot;&lt;/div&gt;&lt;div align=&quot;left&quot;&gt;&quot;primary&quot;&lt;br&gt;&lt;/div&gt;&lt;div align=&quot;left&quot;&gt;&lt;br&gt;&lt;/div&gt;&lt;div align=&quot;left&quot;&gt;11) Animate the character&#39;s sprite. Every frame must last the same time.&lt;/div&gt;&lt;div align=&quot;left&quot;&gt;&lt;br&gt;&lt;/div&gt;&lt;div align=&quot;left&quot;&gt;12) Add the character controller. The character controller inputs basic information for actions like the direction where the character must look, or to trigger an action. If the character is a bot, fill the controller with raycasts facing toward the character. The bot_controller.gd script will use these to scan its suroundings. On the other hand, the player_controller.gd script awaits for user input to nurture the character with instructions.&lt;/div&gt;&lt;div align=&quot;left&quot;&gt;&lt;br&gt;&lt;/div&gt;&lt;div align=&quot;left&quot;&gt;&lt;br&gt;&lt;/div&gt;" style="rounded=0;whiteSpace=wrap;html=1;align=left;" parent="1" vertex="1">
          <mxGeometry x="20" y="550" width="810" height="540" as="geometry" />
        </mxCell>
        <mxCell id="zFE-GbohrFRJxw4DnYuw-1" value="&lt;div&gt;&lt;b&gt;&lt;font style=&quot;font-size: 24px;&quot;&gt;&lt;u&gt;Melee Weapon Setup:&lt;/u&gt;&lt;/font&gt;&lt;/b&gt;&lt;/div&gt;&lt;div&gt;&lt;br&gt;&lt;/div&gt;&lt;div&gt;1) Create a new inherited scene from the base melee_weapon.tscn in the MeleeWeapon directory and save inside of it   and &lt;br&gt;rename it accordingly, i.e: axe.tscn&lt;/div&gt;&lt;div&gt;&lt;br&gt;&lt;/div&gt;&lt;div&gt;2) Rename the inherited scene root node as how the new weapon is going to be called, i.e: Axe, Hammer, etc.&lt;/div&gt;&lt;div&gt;&lt;br&gt;&lt;/div&gt;&lt;div&gt;3) Assign the sprite texture, its animation frames, offset, etc.&lt;/div&gt;&lt;div&gt;&lt;br&gt;&lt;/div&gt;&lt;div&gt;4) Add an AnimationPlayer child node and an AnimationTree child node. The reason to create these nodes in the inherited scene is because they cannot be edited if they inherit from a parent scene.&lt;br&gt;&lt;/div&gt;&lt;div&gt;&lt;br&gt;&lt;/div&gt;&lt;div&gt;5) Create the &quot;attack&quot; animation in the AnimationPlayer. Create a track to animate the sprite&amp;nbsp; and and another track to map the hitbox &quot;activated&quot; property through the animation. This way, the animation controls the activation of the hitbox. The &quot;activated&quot; property must be exposed in order to be visible as a track property.&lt;/div&gt;&lt;div&gt;&lt;br&gt;&lt;/div&gt;&lt;div&gt;6) In the AnimationTree, set the Tree Root property with AnimationNodeBlendTree, set the Anim Player property with an AnimationPlayer reference and the Active Property to true.&amp;nbsp;&lt;/div&gt;&lt;div&gt;Create two animation nodes connected to a OneShot node. Set the Animation in the &quot;in&quot; slot to be RESET and the one in the &quot;shot&quot; slot to be attack. Connect the OneShot to a TimeScale, and that last one to Output.&lt;br&gt;&lt;/div&gt;&lt;div&gt;&lt;br&gt;&lt;/div&gt;&lt;div&gt;7) Set the weapon&#39;s stats.&amp;nbsp;&lt;/div&gt;&lt;div&gt;Attack Speed will modify the attack animation&amp;nbsp;BlendTree&#39;s TimeScale. I.e: if Attack Speed is 1.5, the animation will be played in x1.5.&lt;/div&gt;&lt;div&gt;&lt;font color=&quot;#ff0000&quot;&gt;There is also an Animation Player exposed property, fill this with a reference to the AnimationPlayer created in the previous step.&lt;/font&gt;&lt;br&gt;&lt;/div&gt;&lt;div&gt;Character Anim represents the stance the character must have when carrying a certain type of weapon. The character will have one animation per stance, allowing to design each weapon animation to fit a certain generic stance.&lt;br&gt;&lt;/div&gt;&lt;div&gt;Valid stance names for  the Character Anim property: &lt;br&gt;&lt;/div&gt;&lt;div&gt;&quot;fists&quot;: bare hands/no weapon attack (even for monsters that have no such &quot;fists&quot;). If the weapon is bare hands, it could have no sprite, since the animation is already in the character.&lt;br&gt;&lt;/div&gt;&lt;div&gt;&quot;melee_1&quot;: for weapons with stances similar to axes, hammers, halberds, etc.&lt;/div&gt;&lt;div&gt;&quot;melee_2&quot;: for weapons with stances similar to two handed swords, etc.&lt;br&gt;&lt;/div&gt;&lt;div&gt;&quot;melee_3&quot;: for weapons with stances similar to knives, machetes, one hand swords, etc.&lt;/div&gt;&lt;div&gt;More stances could be added in the future.&lt;/div&gt;&lt;div&gt;&lt;br&gt;&lt;/div&gt;&lt;div&gt;8) Set the hitbox collision shape. Keep in mind that it must not touch the bearer&#39;s hurtbox, otherwise it could damage them.&lt;/div&gt;&lt;div&gt;&lt;br&gt;&lt;/div&gt;&lt;div&gt;9) Make sure the hitbox &quot;activated&quot; property is set to false since the hitbox must start deactivated. Otherwise It can throw a &quot;Cannot call method &#39;set_deferred&#39; on a null value&quot; error.&lt;br&gt;&lt;/div&gt;" style="rounded=0;whiteSpace=wrap;html=1;align=left;" parent="1" vertex="1">
          <mxGeometry x="20" y="-80" width="810" height="590" as="geometry" />
        </mxCell>
      </root>
    </mxGraphModel>
  </diagram>
  <diagram id="9i5Clu5YeptdHhVJyC_o" name="Item Primary Action Sequence">
    <mxGraphModel dx="995" dy="601" grid="1" gridSize="10" guides="1" tooltips="1" connect="1" arrows="1" fold="1" page="1" pageScale="1" pageWidth="850" pageHeight="1100" math="0" shadow="0">
      <root>
        <mxCell id="0" />
        <mxCell id="1" parent="0" />
        <mxCell id="wwFRVCD4okDY2e2z4T4T-35" style="edgeStyle=orthogonalEdgeStyle;rounded=0;orthogonalLoop=1;jettySize=auto;html=1;exitX=0.5;exitY=1;exitDx=0;exitDy=0;entryX=0.5;entryY=0;entryDx=0;entryDy=0;" parent="1" source="wwFRVCD4okDY2e2z4T4T-31" target="wwFRVCD4okDY2e2z4T4T-33" edge="1">
          <mxGeometry relative="1" as="geometry" />
        </mxCell>
        <mxCell id="wwFRVCD4okDY2e2z4T4T-37" value="&lt;div&gt;emits&lt;/div&gt;" style="edgeLabel;html=1;align=center;verticalAlign=middle;resizable=0;points=[];" parent="wwFRVCD4okDY2e2z4T4T-35" vertex="1" connectable="0">
          <mxGeometry x="-0.1529" relative="1" as="geometry">
            <mxPoint as="offset" />
          </mxGeometry>
        </mxCell>
        <mxCell id="wwFRVCD4okDY2e2z4T4T-31" value="&lt;p style=&quot;margin: 4px 0px 0px;&quot;&gt;&lt;b&gt;player_controller.gd&lt;/b&gt;&lt;br&gt;&lt;/p&gt;&lt;hr size=&quot;1&quot;&gt;&lt;div&gt;&lt;font color=&quot;#00ffff&quot;&gt;func&amp;nbsp;&lt;/font&gt;&lt;/div&gt;&lt;div&gt;&lt;font color=&quot;#00ffff&quot;&gt;input_primary_action&lt;/font&gt;&lt;/div&gt;&lt;hr size=&quot;1&quot;&gt;&lt;font color=&quot;#999999&quot;&gt;Waits for user input&lt;br&gt;&lt;/font&gt;" style="verticalAlign=top;align=center;overflow=fill;fontSize=12;fontFamily=Helvetica;html=1;whiteSpace=wrap;" parent="1" vertex="1">
          <mxGeometry x="110" y="20" width="160" height="110" as="geometry" />
        </mxCell>
        <mxCell id="wwFRVCD4okDY2e2z4T4T-38" style="edgeStyle=orthogonalEdgeStyle;rounded=0;orthogonalLoop=1;jettySize=auto;html=1;exitX=0.5;exitY=1;exitDx=0;exitDy=0;entryX=0.5;entryY=0;entryDx=0;entryDy=0;" parent="1" source="wwFRVCD4okDY2e2z4T4T-32" target="wwFRVCD4okDY2e2z4T4T-34" edge="1">
          <mxGeometry relative="1" as="geometry" />
        </mxCell>
        <mxCell id="wwFRVCD4okDY2e2z4T4T-39" value="emits" style="edgeLabel;html=1;align=center;verticalAlign=middle;resizable=0;points=[];" parent="wwFRVCD4okDY2e2z4T4T-38" vertex="1" connectable="0">
          <mxGeometry x="-0.2153" y="-2" relative="1" as="geometry">
            <mxPoint as="offset" />
          </mxGeometry>
        </mxCell>
        <mxCell id="wwFRVCD4okDY2e2z4T4T-32" value="&lt;p style=&quot;margin: 4px 0px 0px;&quot;&gt;&lt;b&gt;bot_controller.gd&lt;/b&gt;&lt;br&gt;&lt;/p&gt;&lt;hr size=&quot;1&quot;&gt;&lt;div&gt;&lt;font color=&quot;#00ffff&quot;&gt;func &lt;/font&gt;&lt;font color=&quot;#00ffff&quot;&gt;&lt;br&gt;&lt;/font&gt;&lt;/div&gt;&lt;div&gt;&lt;font color=&quot;#00ffff&quot;&gt;detect_target&lt;/font&gt;&lt;/div&gt;&lt;hr size=&quot;1&quot;&gt;&lt;font color=&quot;#999999&quot;&gt;Loops through raycasts detecting targets&lt;br&gt;&lt;/font&gt;" style="verticalAlign=top;align=center;overflow=fill;fontSize=12;fontFamily=Helvetica;html=1;whiteSpace=wrap;" parent="1" vertex="1">
          <mxGeometry x="290" y="20" width="160" height="110" as="geometry" />
        </mxCell>
        <mxCell id="wwFRVCD4okDY2e2z4T4T-33" value="&lt;p style=&quot;margin: 4px 0px 0px;&quot;&gt;&lt;b&gt;player_controller.gd&lt;/b&gt;&lt;br&gt;&lt;/p&gt;&lt;hr size=&quot;1&quot;&gt;&lt;font color=&quot;#ff00ff&quot;&gt;signal primary_action_activated&lt;/font&gt;&lt;hr size=&quot;1&quot;&gt;&lt;font color=&quot;#999999&quot;&gt;&lt;br&gt;&lt;/font&gt;" style="verticalAlign=top;align=center;overflow=fill;fontSize=12;fontFamily=Helvetica;html=1;whiteSpace=wrap;" parent="1" vertex="1">
          <mxGeometry x="110" y="190" width="160" height="100" as="geometry" />
        </mxCell>
        <mxCell id="wwFRVCD4okDY2e2z4T4T-46" style="edgeStyle=orthogonalEdgeStyle;rounded=0;orthogonalLoop=1;jettySize=auto;html=1;exitX=0.5;exitY=1;exitDx=0;exitDy=0;entryX=0.5;entryY=0;entryDx=0;entryDy=0;" parent="1" source="wwFRVCD4okDY2e2z4T4T-34" target="wwFRVCD4okDY2e2z4T4T-40" edge="1">
          <mxGeometry relative="1" as="geometry" />
        </mxCell>
        <mxCell id="wwFRVCD4okDY2e2z4T4T-48" value="listened by" style="edgeLabel;html=1;align=center;verticalAlign=middle;resizable=0;points=[];" parent="wwFRVCD4okDY2e2z4T4T-46" vertex="1" connectable="0">
          <mxGeometry x="-0.8052" y="-1" relative="1" as="geometry">
            <mxPoint as="offset" />
          </mxGeometry>
        </mxCell>
        <mxCell id="wwFRVCD4okDY2e2z4T4T-34" value="&lt;p style=&quot;margin: 4px 0px 0px;&quot;&gt;&lt;b&gt;bot_controller.gd&lt;/b&gt;&lt;br&gt;&lt;/p&gt;&lt;hr size=&quot;1&quot;&gt;&lt;font color=&quot;#ff00ff&quot;&gt;signal primary_action_activated&lt;/font&gt;&lt;hr size=&quot;1&quot;&gt;&lt;font color=&quot;#999999&quot;&gt;&lt;br&gt;&lt;/font&gt;" style="verticalAlign=top;align=center;overflow=fill;fontSize=12;fontFamily=Helvetica;html=1;whiteSpace=wrap;" parent="1" vertex="1">
          <mxGeometry x="290" y="190" width="160" height="100" as="geometry" />
        </mxCell>
        <mxCell id="wwFRVCD4okDY2e2z4T4T-42" style="edgeStyle=orthogonalEdgeStyle;rounded=0;orthogonalLoop=1;jettySize=auto;html=1;entryX=0.5;entryY=0;entryDx=0;entryDy=0;" parent="1" source="wwFRVCD4okDY2e2z4T4T-40" target="wwFRVCD4okDY2e2z4T4T-41" edge="1">
          <mxGeometry relative="1" as="geometry" />
        </mxCell>
        <mxCell id="wwFRVCD4okDY2e2z4T4T-43" value="calls" style="edgeLabel;html=1;align=center;verticalAlign=middle;resizable=0;points=[];" parent="wwFRVCD4okDY2e2z4T4T-42" vertex="1" connectable="0">
          <mxGeometry x="-0.0476" y="-3" relative="1" as="geometry">
            <mxPoint as="offset" />
          </mxGeometry>
        </mxCell>
        <mxCell id="wwFRVCD4okDY2e2z4T4T-40" value="&lt;p style=&quot;margin: 4px 0px 0px;&quot;&gt;&lt;b&gt;character.gd&lt;/b&gt;&lt;br&gt;&lt;/p&gt;&lt;hr size=&quot;1&quot;&gt;&lt;div&gt;&lt;font color=&quot;#00ffff&quot;&gt;func &lt;/font&gt;&lt;font color=&quot;#00ffff&quot;&gt;&lt;br&gt;&lt;/font&gt;&lt;/div&gt;&lt;div&gt;&lt;font color=&quot;#00ffff&quot;&gt;on_character_controller_primary_action_activated&lt;/font&gt;&lt;/div&gt;&lt;hr size=&quot;1&quot;&gt;&lt;font color=&quot;#999999&quot;&gt;&lt;br&gt;&lt;/font&gt;" style="verticalAlign=top;align=center;overflow=fill;fontSize=12;fontFamily=Helvetica;html=1;whiteSpace=wrap;" parent="1" vertex="1">
          <mxGeometry x="140" y="375" width="280" height="110" as="geometry" />
        </mxCell>
        <mxCell id="wwFRVCD4okDY2e2z4T4T-50" value="" style="edgeStyle=orthogonalEdgeStyle;rounded=0;orthogonalLoop=1;jettySize=auto;html=1;" parent="1" source="wwFRVCD4okDY2e2z4T4T-41" target="wwFRVCD4okDY2e2z4T4T-49" edge="1">
          <mxGeometry relative="1" as="geometry" />
        </mxCell>
        <mxCell id="wwFRVCD4okDY2e2z4T4T-51" value="if _selected_item is MeleeWeapon call" style="edgeLabel;html=1;align=center;verticalAlign=middle;resizable=0;points=[];" parent="wwFRVCD4okDY2e2z4T4T-50" vertex="1" connectable="0">
          <mxGeometry x="-0.3333" y="1" relative="1" as="geometry">
            <mxPoint x="35" y="1" as="offset" />
          </mxGeometry>
        </mxCell>
        <mxCell id="wwFRVCD4okDY2e2z4T4T-57" style="edgeStyle=orthogonalEdgeStyle;rounded=0;orthogonalLoop=1;jettySize=auto;html=1;exitX=0.5;exitY=1;exitDx=0;exitDy=0;entryX=0.5;entryY=0;entryDx=0;entryDy=0;dashed=1;" parent="1" source="wwFRVCD4okDY2e2z4T4T-41" target="wwFRVCD4okDY2e2z4T4T-52" edge="1">
          <mxGeometry relative="1" as="geometry" />
        </mxCell>
        <mxCell id="wwFRVCD4okDY2e2z4T4T-58" value="emits" style="edgeLabel;html=1;align=center;verticalAlign=middle;resizable=0;points=[];" parent="wwFRVCD4okDY2e2z4T4T-57" vertex="1" connectable="0">
          <mxGeometry x="-0.2595" y="-1" relative="1" as="geometry">
            <mxPoint y="17" as="offset" />
          </mxGeometry>
        </mxCell>
        <mxCell id="wwFRVCD4okDY2e2z4T4T-41" value="&lt;p style=&quot;margin: 4px 0px 0px;&quot;&gt;&lt;b&gt;item_stack.gd&lt;/b&gt;&lt;/p&gt;&lt;hr size=&quot;1&quot;&gt;&lt;div&gt;&lt;font color=&quot;#00ffff&quot;&gt;func &lt;/font&gt;&lt;font color=&quot;#00ffff&quot;&gt;&lt;br&gt;&lt;/font&gt;&lt;/div&gt;&lt;div&gt;&lt;font color=&quot;#00ffff&quot;&gt;activate_primary_action&lt;/font&gt;&lt;/div&gt;&lt;hr size=&quot;1&quot;&gt;&lt;font color=&quot;#999999&quot;&gt;Checks the type of _seleted_item and calls a function accordingly (i.e: if it&#39;s a weapon, it must attack)&lt;br&gt;&lt;/font&gt;" style="verticalAlign=top;align=center;overflow=fill;fontSize=12;fontFamily=Helvetica;html=1;whiteSpace=wrap;" parent="1" vertex="1">
          <mxGeometry x="175" y="545" width="210" height="120" as="geometry" />
        </mxCell>
        <mxCell id="wwFRVCD4okDY2e2z4T4T-45" style="edgeStyle=orthogonalEdgeStyle;rounded=0;orthogonalLoop=1;jettySize=auto;html=1;exitX=0.5;exitY=1;exitDx=0;exitDy=0;entryX=0.5;entryY=0;entryDx=0;entryDy=0;" parent="1" source="wwFRVCD4okDY2e2z4T4T-33" target="wwFRVCD4okDY2e2z4T4T-40" edge="1">
          <mxGeometry relative="1" as="geometry" />
        </mxCell>
        <mxCell id="wwFRVCD4okDY2e2z4T4T-47" value="listened by" style="edgeLabel;html=1;align=center;verticalAlign=middle;resizable=0;points=[];" parent="wwFRVCD4okDY2e2z4T4T-45" vertex="1" connectable="0">
          <mxGeometry x="-0.75" y="-2" relative="1" as="geometry">
            <mxPoint x="2" y="-2" as="offset" />
          </mxGeometry>
        </mxCell>
        <mxCell id="wwFRVCD4okDY2e2z4T4T-59" style="edgeStyle=orthogonalEdgeStyle;rounded=0;orthogonalLoop=1;jettySize=auto;html=1;" parent="1" source="wwFRVCD4okDY2e2z4T4T-49" edge="1">
          <mxGeometry relative="1" as="geometry">
            <mxPoint x="280" y="695" as="targetPoint" />
            <Array as="points">
              <mxPoint x="595" y="695" />
              <mxPoint x="280" y="695" />
            </Array>
          </mxGeometry>
        </mxCell>
        <mxCell id="wwFRVCD4okDY2e2z4T4T-60" value="if returns true" style="edgeLabel;html=1;align=center;verticalAlign=middle;resizable=0;points=[];" parent="wwFRVCD4okDY2e2z4T4T-59" vertex="1" connectable="0">
          <mxGeometry x="0.2087" y="-1" relative="1" as="geometry">
            <mxPoint as="offset" />
          </mxGeometry>
        </mxCell>
        <mxCell id="wwFRVCD4okDY2e2z4T4T-49" value="&lt;p style=&quot;margin: 4px 0px 0px;&quot;&gt;&lt;b&gt;melee_weapon.gd&lt;/b&gt;&lt;/p&gt;&lt;hr size=&quot;1&quot;&gt;&lt;div&gt;&lt;font color=&quot;#00ffff&quot;&gt;func &lt;/font&gt;&lt;font color=&quot;#00ffff&quot;&gt;&lt;br&gt;&lt;/font&gt;&lt;/div&gt;&lt;div&gt;&lt;div&gt;&lt;font color=&quot;#00ffff&quot;&gt;try_attack&lt;/font&gt;&lt;/div&gt;&lt;/div&gt;&lt;hr size=&quot;1&quot;&gt;&lt;font color=&quot;#999999&quot;&gt;Returns true if the attack started. I.e: if there is already an attack going on, it returns false. A state machine is used to determine the attack availability.&lt;br&gt;&lt;/font&gt;" style="verticalAlign=top;align=center;overflow=fill;fontSize=12;fontFamily=Helvetica;html=1;whiteSpace=wrap;" parent="1" vertex="1">
          <mxGeometry x="630" y="537.5" width="210" height="135" as="geometry" />
        </mxCell>
        <mxCell id="wwFRVCD4okDY2e2z4T4T-54" value="" style="edgeStyle=orthogonalEdgeStyle;rounded=0;orthogonalLoop=1;jettySize=auto;html=1;" parent="1" source="wwFRVCD4okDY2e2z4T4T-52" target="wwFRVCD4okDY2e2z4T4T-53" edge="1">
          <mxGeometry relative="1" as="geometry" />
        </mxCell>
        <mxCell id="wwFRVCD4okDY2e2z4T4T-55" value="listened by" style="edgeLabel;html=1;align=center;verticalAlign=middle;resizable=0;points=[];" parent="wwFRVCD4okDY2e2z4T4T-54" vertex="1" connectable="0">
          <mxGeometry x="-0.16" y="-1" relative="1" as="geometry">
            <mxPoint as="offset" />
          </mxGeometry>
        </mxCell>
        <mxCell id="wwFRVCD4okDY2e2z4T4T-52" value="&lt;p style=&quot;margin: 4px 0px 0px;&quot;&gt;&lt;b&gt;item_stack.gd&lt;/b&gt;&lt;/p&gt;&lt;hr size=&quot;1&quot;&gt;&lt;div&gt;&lt;font color=&quot;#ff00ff&quot;&gt;signal&lt;/font&gt;&lt;/div&gt;&lt;div&gt;&lt;font color=&quot;#ff00ff&quot;&gt;primary_action_started&lt;/font&gt;&lt;/div&gt;&lt;div&gt;&lt;font color=&quot;#ff00ff&quot;&gt;params&lt;/font&gt;&lt;/div&gt;&lt;div&gt;&lt;font color=&quot;#ff00ff&quot;&gt;character_anim, speed_scale&lt;br&gt;&lt;/font&gt;&lt;/div&gt;&lt;hr size=&quot;1&quot;&gt;&lt;font color=&quot;#999999&quot;&gt;&lt;br&gt;&lt;/font&gt;" style="verticalAlign=top;align=center;overflow=fill;fontSize=12;fontFamily=Helvetica;html=1;whiteSpace=wrap;" parent="1" vertex="1">
          <mxGeometry x="175" y="785" width="210" height="120" as="geometry" />
        </mxCell>
        <mxCell id="wwFRVCD4okDY2e2z4T4T-53" value="&lt;p style=&quot;margin: 4px 0px 0px;&quot;&gt;&lt;b&gt;character.gd&lt;/b&gt;&lt;/p&gt;&lt;hr size=&quot;1&quot;&gt;&lt;div&gt;&lt;font color=&quot;#00ffff&quot;&gt;func&amp;nbsp;&lt;/font&gt;&lt;/div&gt;&lt;div&gt;&lt;font color=&quot;#00ffff&quot;&gt;on_item_stack_primary_action_started&lt;/font&gt;&lt;/div&gt;&lt;hr size=&quot;1&quot;&gt;&lt;font color=&quot;#999999&quot;&gt;&lt;br&gt;&lt;/font&gt;" style="verticalAlign=top;align=center;overflow=fill;fontSize=12;fontFamily=Helvetica;html=1;whiteSpace=wrap;" parent="1" vertex="1">
          <mxGeometry x="170" y="955" width="220" height="120" as="geometry" />
        </mxCell>
        <mxCell id="-dyLFsEJYvNaSJ4XIw7_-1" value="&lt;div align=&quot;left&quot;&gt;Controllers: They have a _direction property, and two signals: primary_action_activated and scrolled_to_item. character.gd will read the controller&#39;s _direction and multiply it by _speed in order to move the character.&lt;/div&gt;&lt;div align=&quot;left&quot;&gt;The two signals will be used to tell the ItemStack what it must do next.&lt;br&gt;&lt;/div&gt;&lt;div align=&quot;left&quot;&gt;For bots, _direction, and the signals are set procedurally. For players, they are set by user input. &lt;/div&gt;" style="rounded=0;whiteSpace=wrap;html=1;align=left;" vertex="1" parent="1">
          <mxGeometry x="530" y="20" width="280" height="160" as="geometry" />
        </mxCell>
      </root>
    </mxGraphModel>
  </diagram>
  <diagram id="uZZp64dAxdrlR2myWRsc" name="Item Scroll Sequence">
    <mxGraphModel dx="1194" dy="721" grid="1" gridSize="10" guides="1" tooltips="1" connect="1" arrows="1" fold="1" page="1" pageScale="1" pageWidth="850" pageHeight="1100" math="0" shadow="0">
      <root>
        <mxCell id="0" />
        <mxCell id="1" parent="0" />
      </root>
    </mxGraphModel>
  </diagram>
  <diagram id="q26XlxeqNYKdzbiuTgEU" name="Areas">
    <mxGraphModel dx="1194" dy="721" grid="1" gridSize="10" guides="1" tooltips="1" connect="1" arrows="1" fold="1" page="1" pageScale="1" pageWidth="850" pageHeight="1100" math="0" shadow="0">
      <root>
        <mxCell id="0" />
        <mxCell id="1" parent="0" />
      </root>
    </mxGraphModel>
  </diagram>
</mxfile>
